<?xml version="1.0" standalone="no"?>
<!DOCTYPE svg PUBLIC "-//W3C//DTD SVG 20010904//EN"
 "http://www.w3.org/TR/2001/REC-SVG-20010904/DTD/svg10.dtd">
<svg version="1.0" xmlns="http://www.w3.org/2000/svg"
 width="1536.000000pt" height="1152.000000pt" viewBox="0 0 1536.000000 1152.000000"
 preserveAspectRatio="xMidYMid meet">

<g transform="translate(0.000000,1152.000000) scale(0.100000,-0.100000)"
fill="#3f83f8" stroke="none">
<path d="M7226 8011 c-3 -4 -23 -11 -44 -15 -120 -19 -267 -93 -365 -183 -146
-134 -217 -310 -204 -501 8 -110 42 -215 96 -292 41 -58 42 -60 26 -90 -8 -16
-29 -37 -45 -45 -52 -27 -63 -69 -30 -115 16 -22 29 -29 67 -32 65 -6 172 8
208 26 40 21 46 20 101 -9 26 -14 48 -24 50 -23 1 2 4 30 5 62 l3 59 -57 25
-57 25 -47 -20 c-56 -24 -113 -36 -113 -25 0 5 14 34 31 66 l31 58 -29 31
c-90 96 -133 205 -133 337 0 104 20 177 69 259 81 134 235 241 395 276 107 24
312 17 408 -14 36 -12 68 -25 70 -29 2 -4 26 -18 53 -32 63 -31 185 -151 211
-207 l19 -42 63 -1 c34 0 62 2 62 5 0 3 -10 25 -21 48 -88 172 -250 308 -430
360 -52 15 -108 32 -125 37 -38 12 -261 13 -268 1z"/>
<path d="M7900 7429 c-115 -11 -166 -26 -275 -80 -113 -56 -200 -128 -276
-227 -56 -74 -84 -142 -109 -265 -17 -84 -17 -92 0 -180 20 -102 56 -201 92
-248 93 -124 207 -217 323 -264 39 -15 84 -33 100 -41 38 -16 168 -34 244 -34
63 0 228 26 245 38 6 5 36 18 66 30 l56 22 79 -20 c87 -22 191 -26 230 -8 25
11 42 48 36 78 -2 8 -25 38 -52 67 -27 28 -49 57 -49 64 0 6 15 33 34 59 136
189 139 484 7 679 -160 235 -444 360 -751 330z m184 -109 c50 -6 95 -14 100
-19 6 -5 36 -16 67 -25 55 -17 87 -34 166 -88 44 -29 143 -136 143 -153 0 -6
11 -26 24 -44 65 -88 73 -325 15 -433 -43 -81 -81 -139 -99 -150 -26 -17 -25
-25 10 -91 17 -31 30 -59 30 -63 0 -12 -76 8 -122 33 -42 23 -48 24 -62 10
-45 -44 -230 -91 -361 -91 -251 0 -463 108 -574 294 -53 88 -71 155 -71 266 0
90 27 215 50 229 5 3 17 21 25 39 16 33 123 142 179 181 33 23 125 64 144 65
8 0 29 7 47 15 28 14 115 30 180 34 11 0 60 -4 109 -9z"/>
<path d="M7970 7015 l-44 -45 61 -63 c33 -34 59 -68 56 -74 -4 -10 -52 -13
-194 -13 l-189 0 0 -60 0 -60 189 0 c105 0 192 -4 195 -9 4 -5 -21 -37 -55
-71 l-61 -62 44 -44 44 -45 147 148 148 147 -149 148 -148 148 -44 -45z"/>
<path d="M4236 5628 c-7 -13 -19 -57 -25 -98 -7 -41 -16 -97 -21 -125 -5 -27
-17 -93 -26 -145 -36 -212 -57 -334 -79 -455 -9 -49 -20 -112 -25 -140 -4 -27
-20 -117 -34 -200 -15 -82 -33 -186 -41 -230 -8 -44 -19 -107 -25 -140 -6 -33
-17 -98 -25 -145 -8 -47 -19 -112 -25 -145 -68 -371 -77 -435 -59 -446 23 -15
455 -11 467 4 10 12 29 97 52 242 7 39 16 90 21 114 6 23 14 73 19 110 5 36
16 111 25 166 9 55 20 127 25 160 5 33 16 105 25 160 25 164 35 234 50 350 7
61 17 123 20 138 10 39 33 34 40 -10 4 -21 11 -51 16 -68 10 -34 76 -299 90
-360 4 -22 16 -65 24 -95 9 -30 20 -68 24 -85 48 -180 96 -322 113 -337 17
-16 42 -18 183 -18 189 0 187 -1 250 102 21 35 66 106 100 158 61 96 171 275
208 340 10 19 47 82 82 140 34 58 79 137 100 175 46 86 65 109 78 96 6 -6 6
-25 -1 -53 -24 -95 -33 -137 -51 -228 -10 -52 -35 -176 -55 -275 -20 -99 -40
-202 -46 -230 -11 -55 -36 -193 -43 -240 -8 -46 -37 -213 -48 -275 -20 -111
-22 -172 -8 -181 8 -5 111 -9 230 -9 193 0 217 2 231 18 8 9 23 60 32 112 9
52 21 118 26 145 12 63 29 154 40 225 10 57 32 183 50 285 6 33 17 98 25 145
8 47 23 137 34 200 12 63 25 140 31 170 10 58 35 201 50 285 5 28 16 93 25
145 8 52 20 115 24 140 5 25 17 90 26 145 10 55 23 131 30 169 9 44 10 77 5
92 l-10 24 -269 0 -269 0 -22 -27 c-22 -28 -90 -132 -287 -438 -112 -174 -246
-392 -323 -525 -24 -41 -62 -106 -84 -145 -23 -38 -48 -82 -55 -98 -8 -15 -19
-26 -25 -24 -12 4 -12 4 -66 232 -23 94 -50 206 -61 250 -12 44 -25 98 -30
120 -8 33 -64 228 -166 575 -9 30 -23 61 -31 68 -12 9 -81 12 -269 12 -251 0
-253 0 -267 -22z"/>
<path d="M7325 5064 c-180 -12 -501 -96 -547 -142 -17 -17 -28 -63 -63 -257
-14 -80 -60 -333 -70 -390 -15 -76 -67 -365 -75 -410 -5 -27 -23 -126 -40
-220 -18 -93 -34 -194 -37 -224 -8 -81 -7 -81 229 -81 226 0 230 2 243 81 5
36 32 186 71 394 3 17 19 104 35 195 16 91 36 199 43 240 8 41 24 131 36 200
12 69 26 135 30 146 11 28 91 49 190 49 97 -1 138 -23 169 -94 35 -82 38 -58
-93 -813 -8 -46 -22 -121 -31 -168 -9 -47 -19 -112 -22 -145 -5 -58 -4 -61 21
-73 34 -15 360 -16 404 -1 36 12 31 -7 102 399 5 30 16 91 24 135 8 44 22 123
31 175 9 52 24 129 32 170 9 44 16 135 17 220 l2 145 59 24 c47 19 79 24 145
25 98 0 133 -14 177 -71 24 -31 29 -48 31 -113 4 -81 2 -97 -48 -380 -28 -159
-49 -279 -97 -550 -24 -138 -23 -162 7 -177 30 -15 365 -18 403 -4 13 5 27 17
31 27 4 10 22 104 41 208 19 105 39 214 44 241 5 28 17 88 25 135 9 47 24 135
35 195 47 259 47 398 1 536 -43 127 -144 250 -249 303 -103 52 -186 70 -326
69 -145 -1 -223 -18 -376 -79 -48 -19 -93 -34 -100 -34 -8 0 -30 10 -49 23
-35 23 -114 57 -180 76 -40 11 -200 20 -275 15z"/>
<path d="M9195 5004 c-13 -13 -15 -28 -11 -63 6 -48 15 -144 41 -431 25 -284
45 -495 60 -660 8 -85 17 -191 20 -235 4 -44 11 -116 16 -160 15 -119 5 -115
274 -115 199 0 224 2 238 18 15 16 85 178 215 492 52 126 163 428 189 514 24
77 30 30 37 -261 3 -164 10 -395 15 -513 9 -203 10 -215 31 -232 20 -16 46
-18 234 -18 183 0 215 2 239 18 23 13 44 51 96 172 38 85 134 306 215 490 397
900 427 972 415 986 -9 11 -55 14 -229 14 -251 0 -233 7 -274 -110 -15 -41
-60 -165 -101 -275 -80 -218 -237 -652 -252 -700 -5 -16 -13 -29 -17 -28 -4 2
-9 87 -11 190 -9 343 -35 865 -46 884 -9 18 -24 19 -232 19 -164 0 -227 -3
-239 -12 -9 -7 -27 -42 -41 -78 -14 -36 -73 -184 -130 -330 -58 -146 -135
-355 -172 -465 -37 -110 -70 -204 -74 -210 -13 -23 -19 65 -21 325 -4 493 -13
755 -29 773 -12 15 -41 17 -227 17 -184 0 -215 -2 -229 -16z"/>
</g>
</svg>
